<svg width="1112" height="325" xmlns="http://www.w3.org/2000/svg" xmlns:xlink="http://www.w3.org/1999/xlink" overflow="hidden"><defs><clipPath id="clip0"><rect x="96" y="159" width="1112" height="325"/></clipPath><clipPath id="clip1"><rect x="96" y="160" width="324" height="323"/></clipPath><clipPath id="clip2"><rect x="96" y="160" width="324" height="323"/></clipPath><clipPath id="clip3"><rect x="96" y="160" width="324" height="323"/></clipPath></defs><g clip-path="url(#clip0)" transform="translate(-96 -159)"><g clip-path="url(#clip1)"><g clip-path="url(#clip2)"><g clip-path="url(#clip3)"><path d="M67.2917 165.874 67.2917 205.24C67.2917 223.745 109.349 242.25 161.5 242.25 213.651 242.25 255.708 223.745 255.708 205.24L255.708 165.874 161.5 199.183 67.2917 165.874Z" fill="#0052D9" transform="matrix(1.0031 0 0 1 96 160)"/><path d="M161.5 184.716 308.196 133.237 161.5 80.75 14.8042 133.237 33.6458 139.967 33.6458 201.875C33.6458 205.576 36.674 208.604 40.375 208.604 44.076 208.604 47.1042 205.576 47.1042 201.875L47.1042 144.677 161.5 184.716Z" fill="#0052D9" transform="matrix(1.0031 0 0 1 96 160)"/></g></g></g><text font-family="Microsoft YaHei UI,Microsoft YaHei UI_MSFontService,sans-serif" font-style="oblique" font-weight="700" font-size="96" transform="translate(439.785 355)">Lab</text><text font-family="Microsoft YaHei,Microsoft YaHei_MSFontService,sans-serif" font-style="oblique" font-weight="700" font-size="96" transform="translate(611.785 355)">直</text><text font-family="Microsoft YaHei,Microsoft YaHei_MSFontService,sans-serif" font-style="oblique" font-weight="700" font-size="96" transform="translate(707.785 355)">聘</text><text font-family="Microsoft YaHei,Microsoft YaHei_MSFontService,sans-serif" font-style="oblique" font-weight="700" font-size="96" transform="translate(803.785 355)">-</text><text font-family="Microsoft YaHei,Microsoft YaHei_MSFontService,sans-serif" font-style="oblique" font-weight="700" font-size="96" transform="translate(845.619 355)">admin</text></g></svg>